# xmcd
#
# Track frame offsets:
# 150
# 18776
# 36070
# 51303
# 67180
# 80980
# 96288
# 116469
# 132054
# 153027
# 168861
# 185043
#
# Disc length: 2673 seconds
#
# Revision: 1
# Processed by: cddbd v1.5.2PL0 Copyright (c) Steve Scherf et al.
# Submitted via: CedeCatalogueitor 2.6.0.6 http://personales.ya.com/cdcatalogueitor
#
DISCID=9a0a6f0c
DTITLE=Tanlines - Mixed Emotions
DYEAR=1900
DGENRE=
TTITLE0=Brothers
TTITLE1=All Of Me
TTITLE2=Green Grass
TTITLE3=Abby
TTITLE4=Yes Way
TTITLE5=Laughing
TTITLE6=Not The Same
TTITLE7=Lost Somewhere
TTITLE8=Real Life
TTITLE9=Rain Delay
TTITLE10=Cactus 
TTITLE11=Nonesuch
EXTD=
EXTT0=
EXTT1=
EXTT2=
EXTT3=
EXTT4=
EXTT5=
EXTT6=
EXTT7=
EXTT8=
EXTT9=
EXTT10=
EXTT11=
PLAYORDER=
